<svg xmlns="http://www.w3.org/2000/svg" width="125" height="21" fill="none" xmlns:v="https://vecta.io/nano"><style><![CDATA[.B{stroke-width:.574}.C{filter:url(#C)}.D{color-interpolation-filters:sRGB}.E{flood-opacity:0}.F{stroke-width:.229}]]></style><g clip-path="url(#G)"><path d="M76.7 6.244l.915 2.656h-1.876l.961-2.656z" fill="#00d1ff"/><g fill="#fff"><path d="M37.452.282v10.704h2.204V3.475h.03l2.624 7.511h1.814L46.747 3.4h.03v7.586h2.204V.282h-3.313l-2.369 7.361h-.03L40.765.282h-3.313zm28.214 1.979v8.725h2.354V2.261h3.208V.282h-8.77v1.979h3.208zm27.947 8.725L96.491.282h-2.309l-1.754 7.376h-.03L90.569.282h-2.204l-1.859 7.286h-.03L84.782.282h-2.354l2.834 10.704h2.384L89.43 3.7h.03l1.814 7.286h2.339zM98.849.282v10.704h2.354V.282h-2.354zm5.47 0v10.704h2.204V3.82h.03l4.453 7.166h2.354V.282h-2.204v7.181h-.03L106.658.282h-2.339zm-30.49 10.704l2.848-8.066h.03l2.774 8.066h2.444L77.922.282h-2.414L71.46 10.986h2.369zM52.076 9.007v1.979h8.006V9.007h-8.006zm.952-4.214v1.829h6.103V4.793h-6.103zM52.076.282v1.979h8.006V.282h-8.006z"/></g><path d="M42.596 16.824c-.18-.972-1.02-1.452-2.004-1.452-1.812 0-2.196 1.356-2.196 2.268s.384 2.268 2.196 2.268c.924 0 1.812-.42 2.004-1.488h2.076c-.24 1.956-1.92 2.772-4.152 2.772-2.556 0-4.152-1.056-4.152-3.552s1.596-3.54 4.152-3.54c1.692 0 3.84.408 4.128 2.724h-2.052zm14.556 2.772h-3.228L53.348 21h-2.052l3.084-6.792h2.304L59.768 21h-2.052l-.564-1.404zm-1.62-3.924l-1.104 2.688h2.208l-1.104-2.688zm16.109.552c-.12-.876-.996-.96-1.752-.96-.792 0-1.308.336-1.308.78 0 .36.324.564.816.636l2.388.372c1.272.192 2.244.66 2.244 1.884 0 1.248-.876 2.256-3.648 2.256-1.704 0-3.924-.204-3.948-2.304h2.148c.012.924.984 1.08 1.8 1.08.9 0 1.512-.252 1.512-.84 0-.516-.432-.66-1.188-.768l-1.74-.252c-1.224-.18-2.4-.528-2.4-1.908 0-1.5 1.272-2.112 3.48-2.112 1.44 0 3.588.24 3.708 2.136h-2.112zm9.702-2.016h1.908V21h-1.908v-6.792zm15.44 0h1.848V21h-2.076l-3.816-4.74h-.024V21h-1.848v-6.792h2.208l3.696 4.74h.012v-4.74zm9.108 3.432c0-1.404.588-3.54 4.368-3.54 3.768 0 4.368 2.136 4.368 3.54s-.6 3.552-4.368 3.552c-3.78 0-4.368-2.148-4.368-3.552zm2.028 0c0 1.044.612 2.268 2.34 2.268s2.34-1.224 2.34-2.268-.612-2.268-2.34-2.268-2.34 1.224-2.34 2.268z" fill="#00d1ff"/><path d="M13.832 7.908l.001 4.853-1.583 2.156-.001-9.042 2.096.001 2.148 3.034 2.152-3.034 1.975.001-4.12 5.696" fill="#fff"/><path d="M20.293 14.102l-.001-4.853 1.583-2.156v9.042l-2.096-.001-2.148-3.034-2.152 3.034-1.975-.001 4.12-5.696" fill="url(#D)"/><g filter="url(#A)" class="B"><circle cx="17" cy="11" r="9.713" stroke="url(#E)"/></g><g filter="url(#B)" class="B"><circle cx="17" cy="11" r="9.713" stroke="url(#E)"/></g><g class="C B"><circle cx="17" cy="11" r="9.713" stroke="url(#F)"/></g><g class="C B"><circle cx="17" cy="11" r="9.713" stroke="url(#F)"/></g><g class="C F"><circle cx="17" cy="11" r="9.886" stroke="url(#F)"/></g><g class="C F"><circle cx="17" cy="11" r="9.886" stroke="url(#F)"/></g></g><defs><filter id="A" x="6.285" y=".285" width="21.429" height="21.429" filterUnits="userSpaceOnUse" class="D"><feFlood class="E"/><feBlend in="SourceGraphic"/><feGaussianBlur stdDeviation=".357"/></filter><filter id="B" x="6.786" y=".786" width="20.429" height="20.429" filterUnits="userSpaceOnUse" class="D"><feFlood class="E"/><feBlend in="SourceGraphic"/><feGaussianBlur stdDeviation=".107"/></filter><filter id="C" x="5.809" y="-.191" width="22.382" height="22.382" filterUnits="userSpaceOnUse" class="D"><feFlood class="E"/><feBlend in="SourceGraphic"/><feGaussianBlur stdDeviation=".595"/></filter><radialGradient id="D" cx="0" cy="0" r="1" gradientUnits="userSpaceOnUse" gradientTransform="translate(17.5141 10.6262) rotate(51.3402) scale(5.53541 13.302)"><stop stop-color="#717075"/><stop offset=".848" stop-color="#fff"/></radialGradient><radialGradient id="E" cx="0" cy="0" r="1" gradientUnits="userSpaceOnUse" gradientTransform="translate(17 11) rotate(90) scale(10)"><stop offset=".46" stop-color="#00d1ff"/><stop offset=".755" stop-color="#00d1ff" stop-opacity="0"/></radialGradient><radialGradient id="F" cx="0" cy="0" r="1" gradientUnits="userSpaceOnUse" gradientTransform="translate(17 11) rotate(90) scale(10)"><stop offset=".454" stop-color="#00d1ff"/><stop offset=".755" stop-color="#00d1ff" stop-opacity="0"/></radialGradient><clipPath id="G"><path fill="#fff" d="M0 0h125v21H0z"/></clipPath></defs></svg>